<svg version="1.1" xmlns="http://www.w3.org/2000/svg" xmlns:xlink="http://www.w3.org/1999/xlink" width="701.00001" height="701.00001" viewBox="-137.00001,86.5,701.00001,701.00001">
    <g fill="none" fill-rule="nonzero" stroke="none" stroke-width="1" stroke-linecap="none" stroke-linejoin="none" stroke-miterlimit="10" stroke-dasharray="" stroke-dashoffset="0" font-family="none" font-weight="none" font-size="none" text-anchor="none" style="mix-blend-mode: normal">
        <path d="M-66.5,717c-93.33334,-93.33334 -93.33334,-466.66666 0,-560c93.33334,-93.33334 466.66666,-93.33334 560,0c93.33334,93.33334 93.33334,466.66666 0,560c-93.33334,93.33334 -466.66666,93.33334 -560,0z" id="Path 1" fill="#ffffff" stroke="#ffffff" stroke-linecap="round" stroke-linejoin="round" />
        <path d="M359.59393,612h-51.13287l-14.97832,-41.1526h-159.82349l-15.12029,41.1526h-51.13287l14.32454,-163.73024h-0.00003v-175.31271h29.21879v18.26174h43.84043v-29.21879h117.4204v29.21879h43.84043v-18.26174h29.21879v175.31271h-0.00003zM224.45703,386.17983l-10.95705,14.60939l-10.95705,-14.60939v-36.52348h-47.75315v-29.21879h-43.84043v127.83219h205.10126v-127.83219h-43.84043v29.21879h-47.75316zM257.32817,305.82818c0,-8.06854 -6.54085,-14.60939 -14.60939,-14.60939c-8.06854,0 -14.60939,6.54085 -14.60939,14.60939c0,8.06854 6.54085,14.60939 14.60939,14.60939c8.06854,0 14.60939,-6.54085 14.60939,-14.60939zM116.42788,515.0371c3.02571,0 5.47852,-2.45282 5.47852,-5.47852c0,-3.02571 -2.45282,-5.47852 -5.47852,-5.47852c-3.02571,0 -5.47852,2.45282 -5.47852,5.47852c0,3.02571 2.45282,5.47852 5.47852,5.47852zM143.82049,509.55858c0,3.02571 2.45282,5.47852 5.47852,5.47852c3.02571,0 5.47852,-2.45282 5.47852,-5.47852c0,-3.02571 -2.45282,-5.47852 -5.47852,-5.47852c-3.02571,0 -5.47852,2.45282 -5.47852,5.47852zM255.77462,504.08006h32.87113c3.02571,0 5.47852,-2.45282 5.47852,-5.47852c0,-3.02571 -2.45282,-5.47852 -5.47852,-5.47852c-0.00091,0 -32.86749,0 -32.8684,0c-0.00091,0 -0.00183,0 -0.00274,0c-3.02571,0 -5.47852,2.45282 -5.47852,5.47852c0,3.02571 2.45282,5.47852 5.47852,5.47852zM255.77462,525.99415h32.87113c3.02571,0 5.47852,-2.45282 5.47852,-5.47852c0,-3.02571 -2.45282,-5.47852 -5.47852,-5.47852h-32.87113c-3.02571,0 -5.47852,2.45282 -5.47852,5.47852c0,3.02571 2.45282,5.47852 5.47852,5.47852z" id="CompoundPath 1" fill="#0d66fe" stroke="#0d66fe" stroke-linecap="butt" stroke-linejoin="miter" />
    </g>
</svg>